<svg version="1.1" 
	xmlns="http://www.w3.org/2000/svg"
	width="2000" height="1000">
	<g>
		<defs>
			<radialGradient id="gradient1" cx="0.5" cy="0.5" r="0.4" fx="0.5" fy="0.5" spreadMethod="Pad">
				<stop offset="0%" stop-color="#fff"/>
				<stop offset="40%" stop-color="#eee"/>
				<stop offset="70%" stop-color="gray"/>
				<stop offset="80%" stop-color="black"/>
				<stop offset="100%" stop-color="black"/>
			</radialGradient>
		</defs>
		<path d="M 100 300 C 120 190 150 200 200 200 C 200 100 450 100 450 200 C 600 200 600 200 600 300" stroke="gray" stroke-width="5" fill="transparent">
			<animate attributeName="d" from="M 100 300 C 120 190 150 200 200 200 C 200 100 450 100 450 200 C 600 200 600 200 600 300" to="M 1500 300 C 1520 190 1550 200 1600 200 C 1600 100 1850 100 1850 200 C 2000 200 2000 200 2000 300" begin="0s" dur="10s" repeatCount="indefinite"/>
		</path>
		<path d="M 210 220 V 200 C 230 120 420 120 440 200 V 220 H 330 V 145 H 320 V 220 H 208 V 225 H 443" stroke="gray" stroke-width="5" fill="transparent">
			<animate attributeName="d" from="M 210 220 V 200 C 230 120 420 120 440 200 V 220 H 330 V 145 H 320 V 220 H 208 V 225 H 443" to="M 1610 220 V 200 C 1630 120 1820 120 1840 200 V 220 H 1730 V 145 H 1720 V 220 H 1608 V 225 H 1843" begin="0s" dur="10s" repeatCount="indefinite"/>
		</path>
		<path d="M 560 205 C 550 260 600 250 600 250" fill="transparent" stroke="gray" stroke-width="5">
			<animate attributeName="d" from="M 560 205 C 550 260 600 250 600 250" to="M 1960 205 C 1950 260 2000 250 2000 250" begin="0s" dur="10s" repeatCount="indefinite"/>
		</path>
		<rect x="90" y="300" rx="5" width="520" height="10" fill="gray">
			<animate attributeName="x" from="90" to="1490" begin="0s" dur="10s" repeatCount="indefinite"/>
		</rect>
		<circle cx="250" cy="300" r="40" fill="url(#gradient1)">
			<animate attributeName="cx" from="250" to="1650" begin="0s" dur="10s" repeatCount="indefinite"/>
		</circle>
		<circle cx="450" cy="300" r="40" fill="url(#gradient1)">
			<animate attributeName="cx" from="450" to="1850" begin="0s" dur="10s" repeatCount="indefinite"/>
		</circle>
	</g>
	
</svg>