<svg version="1.1" 
	xmlns="http://www.w3.org/2000/svg"
	width="1000" height="1000" viewBox="0 0 1000 1000">

	<path d="M 100 40 H 500 L 450 10 " stroke="red" fill="transparent"/>

	<path d="M 100 100 H 900 L 450 310 Z" stroke="red" fill="lightblue"/>

	<path d="M 100 500 C 200 600, 400 600, 500 500 " stroke="red" fill="transparent"/>
	<path d="M 500 500 C 600 400, 800 400, 900 500 " stroke="red" fill="transparent"/>

	<path d="M 100 200 C 200 300, 300 200, 400 200 S 600 100, 600 200" stroke="green" fill="transparent"  stroke-width="20"  stroke-linecap="round"/>

	<path d="M 100 300 S 600 100, 600 300" stroke="green" fill="transparent"/>

	<path d="M 100 600 Q 350 300, 600 600" stroke="green" fill="transparent"/>

	<path d="M 100 700 Q 200 500, 500 700 T 800 700" stroke="blue" fill="transparent"/>

</svg>