<svg width="2000" height="2500" version="1.1" xmlns="http://www.w3.org/2000/svg">

  <polyline points="60 110 65 120 70 115 75 130 80 125 85 140 90 135 95 150 100 145"
      stroke="orange" fill="transparent" stroke-width="5"/>

  <polyline points="0 30 20 30 30 10 40 30 50 30 40 40 50 60 30 50 10 60 20 40 0 30" stroke-width="2" stroke="red" fill="transparent"/>

  <polygon points="50 160 55 180 70 180 60 190 65 205 50 195 35 205 40 190 30 180 45 180" stroke="green" fill="transparent" stroke-width="5"/>

  <polyline points="100 100 200 400 300 100" stroke="blue" fill="green" stroke-width="5"/>

  <text x="200" y="225" font-size="30" text-anchor="middle" fill="red">polyline</text>

  <polygon points="400 100 500 400 600 100" stroke="blue" fill="green" stroke-width="5"/>

  <text x="500" y="225" font-size="30" text-anchor="middle" fill="red">polygon</text>

</svg>