<svg width="2000" height="2500" version="1.1" xmlns="http://www.w3.org/2000/svg">

  <rect x="10" y="10" width="30" height="30" stroke="black" fill="transparent" stroke-width="5"/>
  <rect x="60" y="10" rx="250" ry="10" width="300" height="300" stroke="black" fill="transparent" stroke-width="5"/>

  <circle cx="125" cy="25" r="20" stroke="red" fill="transparent" stroke-width="5"/>
  <ellipse cx="75" cy="105" rx="40" ry="15" stroke="red" fill="transparent" stroke-width="5"/>

  <line x1="100" x2="250" y1="110" y2="150" stroke="orange" fill="transparent" stroke-width="15"/>

  <polyline points="60 110 65 120 70 115 75 130 80 125 85 140 90 135 95 150 100 145"
      stroke="orange" fill="transparent" stroke-width="5"/>

  <polyline points="0 30 20 30 30 10 40 30 50 30 40 40 50 60 30 50 10 60 20 40 0 30" stroke-width="2" stroke="red" fill="transparent"/>

  <polygon points="50 160 55 180 70 180 60 190 65 205 50 195 35 205 40 190 30 180 45 180"
      stroke="green" fill="transparent" stroke-width="5"/>

  <path d="M20,230 Q40,205 50,230 T90,230" fill="none" stroke="blue" stroke-width="5"/>
</svg>